<svg id="Capa_1" height="512" viewBox="0 0 512 512" width="512" xmlns="http://www.w3.org/2000/svg"><path d="M95.009 108.62L61.206 10.38h151.403l-32.092 98.24zM184.027 293.624H89.989l-54.67 56.215A89.428 89.428 0 0 0 10 412.189c0 49.391 40.039 89.43 89.43 89.43h75.155c49.391 0 89.43-40.039 89.43-89.43a89.428 89.428 0 0 0-25.319-62.35z" fill="#ffe4b2"/><path d="M295.341 131.746h-10.364a55.9 55.9 0 0 1-43.77-21.129l-7.406-9.323c-10.605-13.349-26.939-21.129-43.988-21.129l-9.295 28.455H59.587c-12.772 0-23.126 10.354-23.126 23.126 0 12.769 10.349 23.121 23.118 23.126h-5.076c-12.772 0-23.126 10.354-23.126 23.126 0 12.772 10.354 23.126 23.126 23.126h15.069c-12.771 0-23.125 10.354-23.125 23.126 0 12.772 10.354 23.126 23.126 23.126h8.705c-12.77.002-23.122 10.355-23.122 23.126 0 12.772 10.354 23.126 23.126 23.126h116.396a55.903 55.903 0 0 0 36.385-13.462l7.56-6.481a55.9 55.9 0 0 1 36.385-13.462h20.335V131.746z" fill="#ffdad5"/><path d="M295.341 116.616h96.65v161.467h-96.65z" fill="#f9f5f3"/><path d="M502 146.054v-49.74l-110.009 20.303v161.466H502v-44.215z" fill="#5c90ae"/><g><path d="M176.036 337.428c-4.746-2.825-10.883-1.264-13.706 3.481l-61.266 102.985c-2.824 4.747-1.266 10.883 3.481 13.707 4.687 2.789 10.922 1.199 13.706-3.481l61.266-102.985c2.825-4.746 1.266-10.883-3.481-13.707zM134.992 363.415c0-17.75-13.053-32.192-29.097-32.192-15.811 0-28.195 14.14-28.195 32.192 0 17.75 13.053 32.191 29.098 32.191 15.809 0 28.194-14.14 28.194-32.191zm-37.292 0c0-6.836 3.6-12.192 8.195-12.192 4.931 0 9.097 5.583 9.097 12.192 0 6.836-3.6 12.191-8.194 12.191-4.932 0-9.098-5.583-9.098-12.191zM145.997 433.827c0 17.75 13.053 32.192 29.097 32.192 16.045 0 29.098-14.441 29.098-32.192s-13.053-32.191-29.098-32.191c-16.044-.001-29.097 14.44-29.097 32.191zm38.194 0c0 6.609-4.166 12.192-9.098 12.192-4.931 0-9.097-5.583-9.097-12.192 0-6.608 4.166-12.191 9.097-12.191 4.932-.001 9.098 5.582 9.098 12.191z"/><path d="M508.397 88.628a9.996 9.996 0 0 0-8.212-2.148l-109.109 20.137h-95.735c-5.522 0-10 4.477-10 10v5.129h-.364c-14.081 0-27.181-6.323-35.939-17.349l-7.406-9.323c-9.608-12.095-23.42-20.385-38.488-23.51l18.972-58.078C224.195 7.122 219.292.381 212.61.381H61.206c-6.747 0-11.654 6.862-9.456 13.253L80.992 98.62H59.586c-18.266 0-33.126 14.86-33.126 33.125a32.966 32.966 0 0 0 7.164 20.551c-7.468 6.079-12.247 15.342-12.247 25.7 0 13.327 7.912 24.841 19.284 30.093a32.917 32.917 0 0 0-4.215 16.158c0 11.401 5.79 21.476 14.584 27.438a32.93 32.93 0 0 0-5.875 18.813c0 14.139 9.311 27.058 22.767 31.472l-39.773 40.897C9.997 361.533 0 386.152 0 412.189c0 54.826 44.604 99.431 99.431 99.431h75.155c54.826 0 99.431-44.604 99.431-99.431 0-26.036-9.997-50.655-28.15-69.321l-39.235-40.344a65.942 65.942 0 0 0 30.939-14.769l7.56-6.481a45.928 45.928 0 0 1 29.876-11.054h10.335v7.863c0 5.523 4.478 10 10 10H502c5.522 0 10-4.477 10-10v-44.215c0-5.523-4.478-10-10-10s-10 4.477-10 10v34.215h-90.009V124.94L492 108.329v37.726c0 5.523 4.478 10 10 10s10-4.477 10-10v-49.74a10 10 0 0 0-3.603-7.687zM198.822 20.38l-18.509 56.663-.006.017-7.043 21.56h-71.12L75.223 20.38zm55.195 391.809c0 43.798-35.633 79.431-79.431 79.431H99.431C55.633 491.62 20 455.987 20 412.189c0-20.8 7.986-40.467 22.487-55.378l51.725-53.186h85.592l51.724 53.186c14.502 14.912 22.489 34.579 22.489 55.378zm20.989-161.969a65.939 65.939 0 0 0-42.894 15.87l-7.56 6.481a45.931 45.931 0 0 1-29.876 11.054H78.28c-7.154 0-13.125-5.972-13.125-13.125 0-7.236 5.888-13.125 13.124-13.125 5.522-.001 9.998-4.478 9.998-10.001 0-5.522-4.478-9.999-10-9.999h-8.706c-7.237 0-13.125-5.888-13.125-13.126 0-7.237 5.888-13.125 13.124-13.125 5.523 0 10-4.478 10-10 0-5.523-4.478-10-10-10H54.502c-7.237 0-13.125-5.888-13.125-13.125 0-7.238 5.888-13.126 13.125-13.126h5.076c5.522 0 9.999-4.476 10-9.999.001-5.522-4.475-10-9.996-10.001-7.235-.002-13.122-5.891-13.122-13.125 0-7.237 5.889-13.125 13.126-13.125h120.932c4.326 0 8.162-2.782 9.506-6.895l6.863-21.009c11.387 1.778 21.92 7.779 29.084 16.798l7.406 9.323c12.575 15.83 31.383 24.909 51.6 24.909h.364V250.22zm30.335 10V126.617h76.65v141.467h-76.65z"/><path d="M507.55 181.58c-3.553-2.371-8.327-2.179-11.699.432-3.297 2.552-4.647 7.064-3.337 11.013 1.34 4.04 5.22 6.865 9.486 6.865 4.181 0 7.99-2.709 9.407-6.631 1.531-4.235-.075-9.203-3.857-11.679z"/></g></svg>