<svg height="1304" viewBox="-65 1 978 978.647" width="1304" xmlns="http://www.w3.org/2000/svg"><path d="M832.496 928.582V50.418c-.09-18.797-15.305-34.012-34.101-34.102H116.03c-18.797.09-34.011 15.305-34.101 34.102v80.117h65.27v65.266H81.93v97.898h65.27v65.27H81.93v97.898h65.27v65.266H81.93v97.898h65.27v65.27H81.93v97.898h65.27v65.266H81.93v80.117c.09 18.797 15.304 34.012 34.101 34.102h682.364c18.796-.09 34.011-15.305 34.101-34.102zM440.898 799.516H212.465V571.082h228.433zm0-391.598H212.465V179.484h228.433zM767.23 799.516H538.797V571.082H767.23zm0-391.598H538.797V179.484H767.23zm0 0" fill="#ffeb99"/><path d="M147.195 130.535H16.665v65.266h130.53zm0 0M147.195 293.7H16.665v65.269h130.53zm0 0M147.195 456.867H16.665v65.266h130.53zm0 0M147.195 620.031H16.665v65.27h130.53zm0 0M147.195 783.2H16.665v65.269h130.53zm0 0" fill="#603913"/><path d="M212.465 407.918h228.433V179.484H212.465zm114.215-195.8v81.581zm0 0" fill="#66a7f6"/><path d="M538.797 407.918H767.23V179.484H538.797zm195.8-114.219" fill="#e03352"/><path d="M212.465 799.516h228.433V571.082H212.465zM399.859 612.12l-73.18 73.18 65.266 65.265-65.265-65.265-65.266 65.265 65.266-65.265-73.18-73.18 73.18 73.18zm0 0" fill="#ffd422"/><path d="M538.797 799.516H767.23V571.082H538.797zm195.8-81.582" fill="#fff"/><g fill="#231f20"><path d="M798.395 0H116.03C88.2.027 65.641 22.586 65.613 50.418v63.797H16.664c-9.012 0-16.316 7.308-16.316 16.32v65.266c0 9.012 7.304 16.316 16.316 16.316h48.95v65.266h-48.95c-9.012 0-16.316 7.308-16.316 16.316v65.27c0 9.011 7.304 16.316 16.316 16.316h48.95v65.266h-48.95c-9.012 0-16.316 7.304-16.316 16.316v65.27c0 9.011 7.304 16.316 16.316 16.316h48.95v65.266h-48.95c-9.012 0-16.316 7.304-16.316 16.316v65.27c0 9.008 7.304 16.316 16.316 16.316h48.95v65.266h-48.95c-9.012 0-16.316 7.304-16.316 16.316v65.266c0 9.011 7.304 16.32 16.316 16.32h48.95v63.797c.027 27.832 22.585 50.39 50.417 50.418h682.364c27.835-.027 50.39-22.586 50.418-50.418V50.418C848.784 22.586 826.23.028 798.394 0zM32.98 146.848h97.899v32.636H32.98zm0 163.168h97.899v32.632H32.98zm0 163.168h97.899v32.632H32.98zm0 163.168h97.899v32.632H32.98zm0 163.164h97.899v32.632H32.98zm783.2 129.066c-.008 9.816-7.965 17.777-17.785 17.785H116.03c-9.816-.008-17.773-7.969-17.785-17.785v-63.797h48.95c9.011 0 16.32-7.308 16.32-16.32v-65.266c0-9.011-7.309-16.316-16.32-16.316h-48.95v-65.266h48.95c9.011 0 16.32-7.308 16.32-16.316v-65.27c0-9.011-7.309-16.316-16.32-16.316h-48.95v-65.266h48.95c9.011 0 16.32-7.304 16.32-16.316v-65.266c0-9.012-7.309-16.316-16.32-16.316h-48.95v-65.27h48.95c9.011 0 16.32-7.304 16.32-16.316v-65.266c0-9.012-7.309-16.316-16.32-16.316h-48.95v-65.266h48.95c9.011 0 16.32-7.308 16.32-16.32V130.53c0-9.011-7.309-16.316-16.32-16.316h-48.95V50.418c.012-9.816 7.969-17.777 17.785-17.785h682.364c9.82.008 17.777 7.969 17.785 17.785zm0 0"/><path d="M440.898 163.168H212.465c-9.012 0-16.317 7.305-16.317 16.316v228.434c0 9.012 7.305 16.316 16.317 16.316h228.433c9.012 0 16.317-7.304 16.317-16.316V179.484c0-9.011-7.305-16.316-16.317-16.316zm-16.316 228.434h-195.8V195.8h195.8zm0 0M767.23 163.168H538.797c-9.012 0-16.317 7.305-16.317 16.316v228.434c0 9.012 7.305 16.316 16.317 16.316H767.23c9.012 0 16.317-7.304 16.317-16.316V179.484c0-9.011-7.305-16.316-16.317-16.316zm-16.316 228.434h-195.8V195.8h195.8zm0 0M440.898 554.766H212.465c-9.012 0-16.317 7.308-16.317 16.32v228.43c0 9.011 7.305 16.32 16.317 16.32h228.433c9.012 0 16.317-7.309 16.317-16.32v-228.43c0-9.016-7.305-16.32-16.317-16.32zm-16.316 228.433h-195.8V587.4h195.8zm0 0M767.23 554.766H538.797c-9.012 0-16.317 7.308-16.317 16.32v228.43c0 9.011 7.305 16.32 16.317 16.32H767.23c9.012 0 16.317-7.309 16.317-16.32v-228.43c0-9.016-7.305-16.32-16.317-16.32zm-16.316 228.433h-195.8V587.4h195.8zm0 0"/><path d="M310.363 375.285h32.633v-65.27h65.27v-32.632h-65.27v-65.266h-32.633v65.266h-65.265v32.633h65.265zm0 0M571.43 277.383h163.168v32.633H571.43zm0 0M571.43 636.352h163.168v32.632H571.43zm0 0M571.43 701.617h163.168v32.633H571.43zm0 0M249.879 739.031l23.07 23.07 53.73-53.73 53.731 53.73 23.074-23.07-53.73-53.73 61.644-61.645-23.074-23.07-61.644 61.64-61.645-61.64-23.07 23.07 61.644 61.645zm0 0"/></g></svg>